<svg id="Layer_1" data-name="Layer 1" xmlns="http://www.w3.org/2000/svg" viewBox="0 0 148.95 69.47"><defs><style>.cls-1{fill:#fff;}</style></defs><title>green_kode</title><rect class="cls-1" x="76.23" width="10.88" height="69.47"/><path class="cls-1" d="M38.9,100.68a7.66,7.66,0,0,1,2.44.38,8,8,0,0,1,2,1,5.32,5.32,0,0,1,1.34,1.28l-1.54,1.6a7.62,7.62,0,0,0-1.93-1.37A4.91,4.91,0,0,0,38.9,103a5.58,5.58,0,0,0-2.82.72,5.27,5.27,0,0,0-2,2,5.68,5.68,0,0,0,0,5.64,5.67,5.67,0,0,0,2,2,5.47,5.47,0,0,0,2.8.75,4.94,4.94,0,0,0,2.06-.43,4.08,4.08,0,0,0,1.57-1.17,2.66,2.66,0,0,0,.6-1.71v-.14H38.86V108.3h6.8c0,.22.05.44.08.65s0,.44,0,.66a7.92,7.92,0,0,1-.36,2.37,5.34,5.34,0,0,1-1.13,2A6.21,6.21,0,0,1,42,115.74a7.13,7.13,0,0,1-3.09.65,8,8,0,0,1-5.66-2.28,7.74,7.74,0,0,1-1.7-2.51,8,8,0,0,1-.6-3.11,7.62,7.62,0,0,1,2.29-5.56,7.74,7.74,0,0,1,2.54-1.65A8,8,0,0,1,38.9,100.68Z" transform="translate(-30.96 -72.52)"/><path class="cls-1" d="M60.25,105.71a4.43,4.43,0,0,1-.82,2.56A5,5,0,0,1,57.29,110l3.57,6.16-2.87,0-3.25-5.77H51.23v5.77H48.86V100.82H55.4a4.76,4.76,0,0,1,2.31.59,4.93,4.93,0,0,1,1.83,1.69A4.72,4.72,0,0,1,60.25,105.71ZM55,103.1H51.23v5h4.39a1.93,1.93,0,0,0,1.63-.75,2.65,2.65,0,0,0,.59-1.68,2.32,2.32,0,0,0-.84-1.9A3,3,0,0,0,55,103.1Z" transform="translate(-30.96 -72.52)"/><path class="cls-1" d="M64.11,100.82h9.67v2.28h-7.3v4.06h6.1v2.28h-6.1v4.45h7.3v2.28H64.11Z" transform="translate(-30.96 -72.52)"/><path class="cls-1" d="M77.58,100.82h9.68v2.28H80v4.06h6.1v2.28H80v4.45h7.31v2.28H77.58Z" transform="translate(-30.96 -72.52)"/><path class="cls-1" d="M101.78,100.82h2.37v15.35H102l-8.93-11.71c.09.89.17,1.78.25,2.66s.12,1.78.12,2.67v6.38H91.05V100.82h2.13l8.93,12c-.13-1.07-.22-2.22-.26-3.45s-.07-2.39-.07-3.46Z" transform="translate(-30.96 -72.52)"/><path class="cls-1" d="M124,116.17H121.6V100.82H124v7.52l7.52-7.52h3.12L128,107.24l6.76,8.93h-3l-5.46-7.3L124,111.15Z" transform="translate(-30.96 -72.52)"/><path class="cls-1" d="M150.62,108.49a8.76,8.76,0,0,1-.54,3.11,7.56,7.56,0,0,1-1.57,2.51,7.29,7.29,0,0,1-2.39,1.68,7.93,7.93,0,0,1-6.05,0,7.09,7.09,0,0,1-2.39-1.68,7.7,7.7,0,0,1-1.56-2.51,9,9,0,0,1,0-6.21,7.7,7.7,0,0,1,1.56-2.51,7.09,7.09,0,0,1,2.39-1.68,7.93,7.93,0,0,1,6.05,0,7.29,7.29,0,0,1,2.39,1.68,7.56,7.56,0,0,1,1.57,2.51A8.74,8.74,0,0,1,150.62,108.49Zm-2.41,0a6.09,6.09,0,0,0-.66-2.86,5.22,5.22,0,0,0-1.81-2,4.89,4.89,0,0,0-2.64-.73,5,5,0,0,0-2.67.73,5.27,5.27,0,0,0-1.8,2,6.73,6.73,0,0,0,0,5.73,5.17,5.17,0,0,0,1.8,2,4.87,4.87,0,0,0,2.67.74,4.81,4.81,0,0,0,2.64-.74,5.08,5.08,0,0,0,1.81-2A6.12,6.12,0,0,0,148.21,108.49Z" transform="translate(-30.96 -72.52)"/><path class="cls-1" d="M159.84,100.82a7.58,7.58,0,0,1,3.12.6,6.2,6.2,0,0,1,2.25,1.67,7.16,7.16,0,0,1,1.36,2.45,9.3,9.3,0,0,1,.46,2.95,9,9,0,0,1-.81,3.85,6.47,6.47,0,0,1-2.41,2.79,7.17,7.17,0,0,1-4,1h-6V100.82Zm-.11,13.07a4.91,4.91,0,0,0,2.81-.73,4.39,4.39,0,0,0,1.58-2,7.17,7.17,0,0,0,.5-2.7,7.09,7.09,0,0,0-.5-2.67,4.47,4.47,0,0,0-1.58-2,4.91,4.91,0,0,0-2.81-.74H156.2v10.79Z" transform="translate(-30.96 -72.52)"/><path class="cls-1" d="M170.24,100.82h9.67v2.28h-7.3v4.06h6.09v2.28h-6.09v4.45h7.3v2.28h-9.67Z" transform="translate(-30.96 -72.52)"/></svg>