<svg id="Layer_1" data-name="Layer 1" xmlns="http://www.w3.org/2000/svg" viewBox="0 0 25.89 15.98"><defs><style>.cls-1{opacity:0.3;}</style></defs><title>key-icons</title><g class="cls-1"><path d="M.83,8.23A5.91,5.91,0,0,1,3.91,3a5.29,5.29,0,0,1,3.91-.57,5.67,5.67,0,0,1,3.89,3,.82.82,0,0,0,.81.53c.15,0,.29,0,.44,0,2.63,0,5.25,0,7.88,0a2.8,2.8,0,0,1,1.95.62c.24.2.51.35.76.54a1.14,1.14,0,0,1,.06,1.74l-1,.92a.51.51,0,0,1-.72,0l-.8-.58a.36.36,0,0,0-.51,0l-.79.57a.52.52,0,0,1-.71,0c-.27-.2-.54-.4-.82-.59a.33.33,0,0,0-.49,0c-.22.18-.43.37-.66.54a.89.89,0,0,1-.42.15c-.39,0-.79,0-1.19,0a.5.5,0,0,0-.5.3.74.74,0,0,1-.78.42c-.53,0-1.07,0-1.6,0a.93.93,0,0,0-.88.54,5.6,5.6,0,0,1-3.1,2.72,5.51,5.51,0,0,1-5.37-.79A5.89,5.89,0,0,1,.91,9.23c0-.05,0-.1,0-.16C.87,8.81.85,8.54.83,8.23Zm3.84,2a2,2,0,0,0,2-2,2,2,0,0,0-2-2,2,2,0,0,0-2,2A2,2,0,0,0,4.67,10.25Z"/></g></svg>