<svg id="Layer_1" data-name="Layer 1" xmlns="http://www.w3.org/2000/svg" viewBox="0 0 300 300"><defs><style>.cls-1{fill:#224732;}</style></defs><path class="cls-1" d="M150.27,9.68c75.89.24,140.83,58.83,143.09,138.4,2.41,85.19-65.31,147.13-142.32,147.37C70.85,295.71,9.16,233.09,7.32,156.19,5.39,75.62,68.61,10,150.27,9.68ZM172.91,276a23.48,23.48,0,0,0,2.47-.17,120.54,120.54,0,0,0,34.22-12.17,3,3,0,0,0,1.73-3.17c-.05-12.35-.16-24.69,0-37a7.54,7.54,0,0,0-3.74-7.06,16.35,16.35,0,0,0-5-2.36c-2.16-.52-2.67-1.57-2.67-3.67,0-23.11,1.15-46.14,4.55-69,2.06-13.79,4.91-27.42,10.14-40.42,2.57-6.36,5.58-12.48,10.36-17.55,1.46-1.55,3.05-2.34,5.35-1.35q.65,82.6,1.28,165.42c30.78-24,55.7-74.16,40.24-128.84-15.94-56.42-70.58-96.87-132.64-91.53A126,126,0,0,0,25.48,134.46C17.63,188,45.74,235.05,80.41,256.67c.06-1,.16-1.83.16-2.68,0-13.05,0-26.11,0-39.16a25.75,25.75,0,0,1,.79-5.21c1.47-6.75,3.34-13.43,4.4-20.24a34.9,34.9,0,0,0-1.41-17.87,6,6,0,0,0-3.89-3.94,30.14,30.14,0,0,1-12.32-9c-15.13-17.45-14.44-47.28-2.36-64,7.25-10,17-15.21,29.62-13.54,11,1.45,19.14,7.52,24.4,17.06,8,14.53,9,29.91,3.67,45.54-3.43,10.06-9.48,18.4-19.17,23.2a10.42,10.42,0,0,0-6.1,7.89c-2.08,9.4-.74,18.65,2,27.58a74.35,74.35,0,0,1,2.92,23c-.2,13.85,0,27.71-.1,41.56,0,2,.57,3,2.51,3.65A137.26,137.26,0,0,0,138.7,278c4.54.41,9.11.49,14,.73V275q0-30.1,0-60.21A37.83,37.83,0,0,1,153,210c1.32-10.29,3-20.54,3.92-30.87,1-11.29.34-22.6-4.11-33.23-1.58-3.76-3.58-7.89-6.6-10.4C138.43,129,136,121,137.06,111.36c.88-7.67,1.92-15.31,2.89-23,1.09-8.62,2.16-17.25,3.33-25.87.11-.78.78-1.94,1.41-2.11,3.55-1,4.6-.06,4.66,3.57q.42,25.68.87,51.35h.49q1.54-27.43,3.1-54.93h5.53q1.56,28.1,3.13,56a3.73,3.73,0,0,0,.74-2.06q1.41-25.26,2.79-50.52c.21-4,.61-4.29,4.7-3q2,27.36,4,54.77a2.86,2.86,0,0,0,.52-1.79q.49-24.35,1-48.71c.1-5.15,0-5.15,5.2-4.71.15,0,.3.17.56.33.15.88.35,1.83.46,2.8,2,16.65,3.94,33.31,6.1,49.94A22.9,22.9,0,0,1,182,133.18a37.34,37.34,0,0,0-8.77,14.72c-4.66,14.63-4,29.6-2.73,44.59.73,8.57,2.11,17.12,2.28,25.69.36,18,.11,36,.11,54.08Z"/></svg>