<svg id="Layer_1" data-name="Layer 1" xmlns="http://www.w3.org/2000/svg" viewBox="0 0 300 300"><defs><style>.cls-1{fill:#224732;}</style></defs><path class="cls-1" d="M4.19,174.07c.66-2.47,1.21-5,2-7.4,5.69-17.67,21.84-29.47,41-30,.93,0,1.85-.1,2.73-.15,4.39-28.42,30.94-48.08,61-42.68,12.33-34.43,48.86-50.45,79.19-44.77,31,5.8,58,33.44,57.14,69.19,5.27,1.54,10.67,2.63,15.67,4.66a51.89,51.89,0,0,1,32.21,52.28c-1.85,22.19-18.25,40.78-40.76,45.86a59.08,59.08,0,0,1-12.66,1.38q-96.61.33-193.24.46c-22.24,0-40-14.82-43.71-36.29a8.56,8.56,0,0,0-.55-1.51ZM146,213.94v-.34q40.78,0,81.56,0c7.1,0,14.33.47,21.27-.61,18.25-2.84,30.51-13.27,35.46-30.5,5-17.51,0-32.75-14.1-44.81-7.64-6.55-16.82-9.75-27-10.08-3.93-.12-5.75-2.1-5.74-5.26,0-5.48.24-11.07-.71-16.44-4.7-26.73-27.66-47-54.75-48.82-28.48-1.88-54,15-62.69,41.32-1.72,5.22-2.86,5.84-8.54,4.66-8-1.68-16-1.74-23.77,1.14C69.82,110.59,60.66,123,58.86,140.59c-.45,4.36-1.88,5.61-6.4,5.25-.56-.05-1.13-.09-1.7-.12-24.53-1.28-42.23,19.52-36.33,42.68a33.93,33.93,0,0,0,33.26,25.52C80.47,214,113.25,213.94,146,213.94Z"/><path class="cls-1" d="M141.16,162.7c1.14-4.88,1.76-10,3.54-14.61,3.23-8.41,10.87-12.71,20.92-12.67,9.37,0,17,4.75,20.26,12.93a41.72,41.72,0,0,1,1.19,28.38C184.3,185.61,176.83,191,167,191.56s-17.79-3.93-21.81-12.35a35.94,35.94,0,0,1-3.3-16.35Zm38.37,1c-1.06-4.51-1.68-8.89-3.15-13-1.72-4.81-5.74-7.14-11-7.21s-9.53,2.21-11.46,7a34.13,34.13,0,0,0,.2,26.59c2,4.71,5.82,6.82,11,6.83s9.39-2.18,11.18-7C177.85,172.77,178.47,168.19,179.53,163.69Z"/><path class="cls-1" d="M134,154.29h-9.61c-.13-.45-.26-.88-.37-1.31-1.8-6.84-4.63-9.3-10.92-9.5-6.78-.22-11,2.48-12.89,8.92a42.35,42.35,0,0,0-.09,23.15c2,7.52,9.33,10.91,16.76,7.94,2.07-.82,3.84-2.84,5.22-4.68,1.05-1.4,1.28-3.38,2-5.4h10c0,9.47-7.44,17-17.7,18.26-15,1.82-26-6.8-27-21.46-.47-6.87-.69-13.79,1.78-20.46,5-13.64,22.41-19,34.7-10.69C130.51,142.22,133.58,147.89,134,154.29Z"/><path class="cls-1" d="M197.23,191.43c-.77-3.68-.13-6.52,2.67-9.3,6.74-6.71,13.16-13.72,19.54-20.75,2.3-2.53,4.33-5.32,4.32-9,0-4.84-2.19-8.13-6-8.71-6-.91-10.33,1.25-11.86,6a37.92,37.92,0,0,0-.81,3.73h-9.4c.37-5.79,1.74-11,7.11-14.23a23.48,23.48,0,0,1,21-1.68c7.21,2.69,10.59,9.87,8.66,17.42-1.41,5.53-4.51,10.06-8.52,14.08q-6.33,6.33-12.65,12.68c-.62.63-1.19,1.31-2.09,2.31H235v7.49Z"/></svg>