<svg xmlns="http://www.w3.org/2000/svg" viewBox="0 0 500 500"><defs><style>.cls-1{fill:#b1bd50;}</style></defs><g id="Layer_1" data-name="Layer 1"><path class="cls-1" d="M133.54,221.49a8.87,8.87,0,0,0-5.86-2H116.61V234.2h12.87a5.74,5.74,0,0,0,4.8-2.19,7.89,7.89,0,0,0,1.7-5A6.84,6.84,0,0,0,133.54,221.49Z"/><path class="cls-1" d="M6.63,129.75V333.59H280.25V129.75ZM99.52,245.53a15.81,15.81,0,0,1-3.32,5.92,18,18,0,0,1-6.66,5.12,21.16,21.16,0,0,1-9,1.9,23.44,23.44,0,0,1-16.61-6.69,22.35,22.35,0,0,1-5-7.38,23.27,23.27,0,0,1-1.77-9.11,22.81,22.81,0,0,1,1.77-9,22.22,22.22,0,0,1,5-7.27,22.73,22.73,0,0,1,7.43-4.86,23.88,23.88,0,0,1,9.14-1.74,22.47,22.47,0,0,1,7.15,1.09,23,23,0,0,1,5.79,2.83A15.9,15.9,0,0,1,97.3,220l-4.51,4.7a24,24,0,0,0-5.66-4,14.44,14.44,0,0,0-6.7-1.58,16.37,16.37,0,0,0-8.27,2.12A15.72,15.72,0,0,0,66.33,227a16.16,16.16,0,0,0-2.12,8.27,15.79,15.79,0,0,0,2.25,8.31,16.74,16.74,0,0,0,6,5.92,16.05,16.05,0,0,0,8.21,2.19,14.89,14.89,0,0,0,6-1.25,12.12,12.12,0,0,0,4.6-3.45,7.76,7.76,0,0,0,1.77-5v-.39H80.3v-6.89h20c.08.65.16,1.29.22,1.94a17.69,17.69,0,0,1,.1,1.93A23.48,23.48,0,0,1,99.52,245.53Zm36.91,12.3-9.52-16.94h-10.3v16.94h-7V212.76h19.19a14.21,14.21,0,0,1,6.79,1.74,14.41,14.41,0,0,1,5.34,5,13.71,13.71,0,0,1,2.09,7.66,12.94,12.94,0,0,1-2.41,7.53,14.54,14.54,0,0,1-6.28,5.15l10.5,18.09Zm46.35-38.37H161.35v11.91h17.89v6.69H161.35v13.07h21.43v6.7H154.39V212.76h28.39Zm39.52,0H200.87v11.91h17.9v6.69h-17.9v13.07H222.3v6.7H193.92V212.76H222.3Zm49.57,38.37H265.5l-26.2-34.38c.26,2.62.5,5.22.74,7.82s.36,5.2.36,7.82v18.74h-7V212.76h6.25l26.2,35.09q-.58-4.71-.78-10.14c-.12-3.63-.19-7-.19-10.14V212.76h6.95Z"/><path class="cls-1" d="M281.08,242.7v-5.8h12.68V224h6.76V236.9h12.81v5.8H300.52v12.42h-6.76V242.7Z"/><path class="cls-1" d="M329.49,257.83h-7V212.76h7v22.08l22.07-22.08h9.15l-19.44,18.87,19.82,26.2H352.4l-16-21.44-6.88,6.69Z"/><path class="cls-1" d="M407.7,235.29a25.36,25.36,0,0,1-1.61,9.11,22.14,22.14,0,0,1-4.61,7.38,21.49,21.49,0,0,1-7,4.92,21.79,21.79,0,0,1-8.85,1.77,22,22,0,0,1-8.89-1.77,21.07,21.07,0,0,1-7-4.92,22.2,22.2,0,0,1-4.57-7.38,26.58,26.58,0,0,1,0-18.22,22.26,22.26,0,0,1,4.57-7.37,21.07,21.07,0,0,1,7-4.92,22,22,0,0,1,8.89-1.77,21.79,21.79,0,0,1,8.85,1.77,21.49,21.49,0,0,1,7,4.92,22.2,22.2,0,0,1,4.61,7.37A25.44,25.44,0,0,1,407.7,235.29Zm-7.09,0a17.87,17.87,0,0,0-1.93-8.4,14.94,14.94,0,0,0-5.31-5.85,14.08,14.08,0,0,0-7.75-2.16,14.25,14.25,0,0,0-7.83,2.16,14.77,14.77,0,0,0-5.27,5.85,19.54,19.54,0,0,0,0,16.81,14.84,14.84,0,0,0,5.27,5.85,14.25,14.25,0,0,0,7.83,2.16,14.08,14.08,0,0,0,7.75-2.16,14.92,14.92,0,0,0,5.31-5.89A17.89,17.89,0,0,0,400.61,235.29Z"/><path class="cls-1" d="M434.73,212.76a22.39,22.39,0,0,1,9.17,1.77,18.29,18.29,0,0,1,6.6,4.9,21.41,21.41,0,0,1,4,7.21,27.39,27.39,0,0,1,1.35,8.65,26.42,26.42,0,0,1-2.38,11.3,19.25,19.25,0,0,1-7.08,8.18,21,21,0,0,1-11.65,3.06H417.09V212.76Zm-.32,38.37a14.3,14.3,0,0,0,8.24-2.16,12.57,12.57,0,0,0,4.63-5.76,21.74,21.74,0,0,0,0-15.77,12.75,12.75,0,0,0-4.63-5.79,14.16,14.16,0,0,0-8.24-2.19H424.05v31.67Z"/><path class="cls-1" d="M465.24,212.76h28.39v6.7H472.19v11.91h17.9v6.69h-17.9v13.07h21.44v6.7H465.24Z"/></g></svg>