<svg id="Layer_1" data-name="Layer 1" xmlns="http://www.w3.org/2000/svg" viewBox="0 0 300 300"><defs><style>.cls-1{fill:#224732;}.cls-2{fill:#fff;}</style></defs><path class="cls-1" d="M108.91,243.49c-1.41,4.64-2.73,9-4.1,13.43-.6,1.92-1.29,3.82-2,5.71-1.28,3.53-3.59,5.19-7.31,5.19q-14.88,0-29.75,0c-5.32,0-8.5-4.33-7.14-9.52q3.49-13.45,6.86-26.94c1.08-4.31,1-4.3-2.62-6.78A90,90,0,0,1,37.6,199.1a3.51,3.51,0,0,0-2.16-1.29c-2.72-.46-5.5-.6-8.21-1.09-8.83-1.61-14.37-7.35-18.26-15C4.71,173.41,2.92,164.39,2,155.16A22.69,22.69,0,0,1,2,149a9.15,9.15,0,0,1,8.41-7.49,61.11,61.11,0,0,0,19.08-4.46,3.4,3.4,0,0,0,1.72-1.68c5.68-15.92,16-28.11,30.07-37.19.34-.22.64-.48,1-.79C54.48,87.48,48.56,76.7,46.53,63.82c.83,0,1.43-.1,2-.12C65,63.1,80.46,67,95.3,73.59c4.93,2.21,9.59,5,14.4,7.49a4.48,4.48,0,0,0,2.25.44c1.7-.09,3.4-.36,5.09-.56A43.53,43.53,0,0,0,200.53,95.1c3.35,2.06,6.74,4,10,6.16,12.33,8.33,22.48,18.68,29.39,32,.21.4.86.91,1.22.85a31.06,31.06,0,0,0,12.45-4.93,98.7,98.7,0,0,1-8.34-6.11,19.53,19.53,0,0,1-6.64-12.55c-1-9.23,6.86-15.87,15.81-13.37,5.74,1.61,9.28,5.78,12.32,10.51a23.52,23.52,0,0,1,3.83,12.27,14.92,14.92,0,0,0,7.31-3.65,28.31,28.31,0,0,0,2.83-3.24,5.42,5.42,0,0,1,7.66-1.2,5.32,5.32,0,0,1,1.13,7.53,26.71,26.71,0,0,1-20.57,11.76,4.18,4.18,0,0,0-3.18,1.61c-5,5.83-11.49,9.09-18.69,11.22-.81.24-1.63.45-2.34.64.67,3.76,1.47,7.35,1.94,11,1.82,13.91-1.12,26.91-7.76,39.15a79.73,79.73,0,0,1-17.1,21.35,5.09,5.09,0,0,0-1.71,3.4,216.9,216.9,0,0,1-8.74,37.81c-.62,1.86-1.26,3.7-1.95,5.54a7,7,0,0,1-7.11,5q-15.13,0-30.26,0a7.09,7.09,0,0,1-6.85-9.18c1.34-5,2.72-10,4.08-15,.07-.26.11-.53.22-1.06A147.57,147.57,0,0,1,108.91,243.49Zm-37-105.64a9,9,0,1,0-9-8.82A9,9,0,0,0,71.94,137.85ZM259.68,119.4A17.12,17.12,0,0,0,252.49,108a3.47,3.47,0,0,0-2.71-.07c-.3.11-.37,1.61-.13,2.34C251.2,115,254.8,117.55,259.68,119.4Z"/><circle class="cls-1" cx="160.71" cy="75.88" r="38.45"/><path class="cls-2" d="M146.33,91a22.2,22.2,0,0,0,5.34-5.12,10.2,10.2,0,0,0,2-6.08,7.87,7.87,0,0,0-.38-2.19c-.16-.53-.42-1.25-.79-2.17H146v-3h4.6a10.11,10.11,0,0,1-1-1.83,28.07,28.07,0,0,1-1.3-2.88,12.4,12.4,0,0,1-.5-2,13.22,13.22,0,0,1-.21-2.42,11.15,11.15,0,0,1,3.72-8.19q3.72-3.62,10.67-3.62,6.53,0,9.88,3.58t3.45,10.11H170q0-4.43-2.07-6.73t-6.28-2.3q-4.11,0-6.21,2.16a7.15,7.15,0,0,0-2.11,5.22,8.24,8.24,0,0,0,.66,3.14c.44,1.07,1.37,3,2.79,5.74h9.61v3h-8.29c.2.9.34,1.6.43,2.11a9,9,0,0,1,.13,1.58,11,11,0,0,1-1.76,5.79,21.55,21.55,0,0,1-5.51,5.67,24.47,24.47,0,0,1,4-1.63,13.11,13.11,0,0,1,3.84-.6,20.78,20.78,0,0,1,5.58,1,21.17,21.17,0,0,0,4.55,1,6,6,0,0,0,2.52-.53A14.21,14.21,0,0,0,174,88.57l2.43,4a16.73,16.73,0,0,1-2.93,2,10.27,10.27,0,0,1-4.54,1,22.37,22.37,0,0,1-5.9-1.35,22.72,22.72,0,0,0-6.55-1.35,11.91,11.91,0,0,0-4.22.76,23,23,0,0,0-3,1.59Z"/></svg>